<?xml version="1.0" encoding="utf-8"?>
<!-- Generator: Adobe Illustrator 26.0.1, SVG Export Plug-In . SVG Version: 6.00 Build 0)  -->
<svg version="1.1" id="レイヤー_1" xmlns="http://www.w3.org/2000/svg" xmlns:xlink="http://www.w3.org/1999/xlink" x="0px"
	 y="0px" viewBox="0 0 428 20" style="enable-background:new 0 0 428 20;" xml:space="preserve">
<style type="text/css">
	.st0{fill:#2B292A;}
	.st1{fill:none;stroke:#2B292A;stroke-width:0.551;stroke-miterlimit:10;}
	.st2{fill:none;stroke:#21A4DD;stroke-width:0.25;}
</style>
<g>
	<path class="st0" d="M2.7,12.5v5c0,0.3,0,0.6,0.2,0.7c0.1,0.1,0.3,0.3,0.6,0.3v0.4h-3.6v-0.4c0.3-0.1,0.5-0.2,0.6-0.3
		c0.1-0.1,0.2-0.4,0.2-0.7v-14c0-0.3,0-0.6-0.2-0.7c0-0.1-0.2-0.2-0.6-0.3V2.1h3.5v0.4C3.1,2.6,2.9,2.7,2.8,2.9
		C2.7,3,2.7,3.2,2.7,3.6v7l9.1-7.1c0.3-0.2,0.5-0.4,0.5-0.6s-0.2-0.3-0.5-0.3V2.1h4.5v0.4c-0.5,0-1,0.2-1.5,0.6L7.9,8.5l7.6,9.6
		c0.2,0.2,0.4,0.4,0.5,0.5c0.2,0.1,0.4,0.1,0.7,0.1v0.4h-4.1v-0.4c0.4-0.1,0.5-0.2,0.5-0.4c0-0.1-0.2-0.4-0.6-0.9L6.4,9.6L2.7,12.5z
		"/>
	<path class="st1" d="M2.7,12.5v5c0,0.3,0,0.6,0.2,0.7c0.1,0.1,0.3,0.3,0.6,0.3v0.4h-3.6v-0.4c0.3-0.1,0.5-0.2,0.6-0.3
		c0.1-0.1,0.2-0.4,0.2-0.7v-14c0-0.3,0-0.6-0.2-0.7c0-0.1-0.2-0.2-0.6-0.3V2.1h3.5v0.4C3.1,2.6,2.9,2.7,2.8,2.9
		C2.7,3,2.7,3.2,2.7,3.6v7l9.1-7.1c0.3-0.2,0.5-0.4,0.5-0.6s-0.2-0.3-0.5-0.3V2.1h4.5v0.4c-0.5,0-1,0.2-1.5,0.6L7.9,8.5l7.6,9.6
		c0.2,0.2,0.4,0.4,0.5,0.5c0.2,0.1,0.4,0.1,0.7,0.1v0.4h-4.1v-0.4c0.4-0.1,0.5-0.2,0.5-0.4c0-0.1-0.2-0.4-0.6-0.9L6.4,9.6L2.7,12.5z
		"/>
	<path class="st0" d="M32.7,12.7l-3.8-8.4L25,12.7H32.7z M33.4,14.3h-9l-1.5,3.2c-0.1,0.3-0.2,0.5-0.2,0.6c0,0.2,0.2,0.4,0.7,0.5V19
		h-3.8v-0.4c0.3-0.1,0.6-0.2,0.8-0.4c0.2-0.2,0.4-0.6,0.7-1.2l6.2-13.4c0.1-0.3,0.2-0.5,0.2-0.7s-0.2-0.4-0.6-0.5V2.1H31v0.4
		c-0.4,0.1-0.6,0.3-0.6,0.5c0,0.1,0.1,0.3,0.2,0.6l5.9,12.9c0.4,1,0.7,1.5,0.9,1.7s0.5,0.3,0.9,0.4V19h-4v-0.4
		c0.5-0.1,0.7-0.2,0.7-0.5c0-0.1-0.1-0.4-0.3-0.8L33.4,14.3z"/>
	<path class="st1" d="M32.7,12.7l-3.8-8.4L25,12.7H32.7z M33.4,14.3h-9l-1.5,3.2c-0.1,0.3-0.2,0.5-0.2,0.6c0,0.2,0.2,0.4,0.7,0.5V19
		h-3.8v-0.4c0.3-0.1,0.6-0.2,0.8-0.4c0.2-0.2,0.4-0.6,0.7-1.2l6.2-13.4c0.1-0.3,0.2-0.5,0.2-0.7s-0.2-0.4-0.6-0.5V2.1H31v0.4
		c-0.4,0.1-0.6,0.3-0.6,0.5c0,0.1,0.1,0.3,0.2,0.6l5.9,12.9c0.4,1,0.7,1.5,0.9,1.7s0.5,0.3,0.9,0.4V19h-4v-0.4
		c0.5-0.1,0.7-0.2,0.7-0.5c0-0.1-0.1-0.4-0.3-0.8L33.4,14.3z"/>
	<path class="st0" d="M52.3,19L45.2,4.8v12.8c0,0.3,0,0.6,0.2,0.7c0.1,0.1,0.3,0.3,0.6,0.3V19h-3.3v-0.4c0.3-0.1,0.5-0.2,0.6-0.3
		s0.2-0.4,0.2-0.7v-14c0-0.3,0-0.6-0.2-0.7c-0.2-0.2-0.4-0.3-0.7-0.4V2.1H47v0.4c-0.4,0.1-0.6,0.3-0.6,0.5c0,0.1,0.1,0.4,0.4,0.9
		L52.4,15l5.7-11.2c0.2-0.4,0.3-0.7,0.3-0.8c0-0.2-0.2-0.4-0.6-0.5V2.1h4.4v0.4c-0.3,0.1-0.5,0.2-0.7,0.4s-0.2,0.4-0.2,0.7v14
		c0,0.3,0,0.6,0.2,0.7c0.1,0.1,0.3,0.3,0.6,0.3V19h-3.5v-0.4c0.3-0.1,0.5-0.2,0.6-0.3s0.2-0.4,0.2-0.7V4.8L52.3,19z"/>
	<path class="st1" d="M52.3,19L45.2,4.8v12.8c0,0.3,0,0.6,0.2,0.7c0.1,0.1,0.3,0.3,0.6,0.3V19h-3.3v-0.4c0.3-0.1,0.5-0.2,0.6-0.3
		s0.2-0.4,0.2-0.7v-14c0-0.3,0-0.6-0.2-0.7c-0.2-0.2-0.4-0.3-0.7-0.4V2.1H47v0.4c-0.4,0.1-0.6,0.3-0.6,0.5c0,0.1,0.1,0.4,0.4,0.9
		L52.4,15l5.7-11.2c0.2-0.4,0.3-0.7,0.3-0.8c0-0.2-0.2-0.4-0.6-0.5V2.1h4.4v0.4c-0.3,0.1-0.5,0.2-0.7,0.4s-0.2,0.4-0.2,0.7v14
		c0,0.3,0,0.6,0.2,0.7c0.1,0.1,0.3,0.3,0.6,0.3V19h-3.5v-0.4c0.3-0.1,0.5-0.2,0.6-0.3s0.2-0.4,0.2-0.7V4.8L52.3,19z"/>
	<path class="st0" d="M69.2,17.6v-14c0-0.3-0.1-0.6-0.2-0.7c-0.1-0.2-0.3-0.3-0.6-0.4V2.1h3.5v0.4c-0.3,0.1-0.5,0.2-0.6,0.3
		c-0.1,0.1-0.2,0.4-0.2,0.7v14c0,0.4,0.1,0.6,0.2,0.7s0.3,0.2,0.6,0.3v0.4h-3.5v-0.4c0.3-0.1,0.5-0.2,0.6-0.3
		C69.2,18.2,69.2,17.9,69.2,17.6"/>
	<path class="st1" d="M69.2,17.6v-14c0-0.3-0.1-0.6-0.2-0.7c-0.1-0.2-0.3-0.3-0.6-0.4V2.1h3.5v0.4c-0.3,0.1-0.5,0.2-0.6,0.3
		c-0.1,0.1-0.2,0.4-0.2,0.7v14c0,0.4,0.1,0.6,0.2,0.7s0.3,0.2,0.6,0.3v0.4h-3.5v-0.4c0.3-0.1,0.5-0.2,0.6-0.3
		C69.2,18.2,69.2,17.9,69.2,17.6z"/>
	<path class="st0" d="M104.9,3.6l-1.8,3.1l-0.3-0.2c0.1-0.2,0.1-0.4,0.1-0.6c0-0.3-0.5-0.8-1.6-1.3c-1.4-0.7-3-1.1-4.8-1.1
		c-2.3,0-4.2,0.6-5.6,1.9c-1.5,1.3-2.2,3-2.2,5.1s0.8,3.8,2.3,5.1s3.3,2,5.4,2s4-0.6,5.6-1.8c0.7-0.5,1.1-0.9,1.1-1.2
		c0-0.1-0.1-0.3-0.2-0.6l0.3-0.2l2.2,2.7l-0.3,0.2c-0.2-0.2-0.4-0.3-0.6-0.3c-0.1,0-0.2,0.1-0.5,0.3c-0.8,0.6-1.4,1-1.9,1.3
		s-1.1,0.5-1.6,0.7c-1.2,0.4-2.6,0.6-4.1,0.6c-2.8,0-5.2-0.8-6.9-2.4c-1.9-1.7-2.8-3.8-2.8-6.4c0-2,0.6-3.8,1.8-5.3
		c1.8-2.3,4.6-3.5,8.2-3.5c2.4,0,4.8,0.6,7,1.9c0.2,0.1,0.2,0.1,0.3,0.1c0.1,0,0.3-0.2,0.6-0.5L104.9,3.6z"/>
	<path class="st0" d="M125,11.1h-11.6v6.4c0,0.4,0.1,0.6,0.2,0.7s0.3,0.2,0.6,0.3v0.4h-3.5v-0.4c0.3-0.1,0.5-0.2,0.6-0.3
		c0.1-0.1,0.2-0.4,0.2-0.7v-14c0-0.3-0.1-0.6-0.2-0.7s-0.3-0.2-0.6-0.3V2.1h3.5v0.4c-0.3,0.1-0.5,0.2-0.6,0.3
		c-0.1,0.1-0.2,0.4-0.2,0.7v5.9H125V3.6c0-0.3-0.1-0.6-0.2-0.7c-0.1-0.1-0.3-0.2-0.6-0.3V2.1h3.5v0.4c-0.3,0.1-0.5,0.2-0.6,0.3
		c-0.1,0.1-0.2,0.4-0.2,0.7v14c0,0.3,0.1,0.6,0.2,0.7c0.1,0.1,0.3,0.3,0.6,0.3v0.4h-3.5v-0.4c0.3-0.1,0.5-0.2,0.6-0.3
		c0.1-0.1,0.2-0.4,0.2-0.7V11.1z"/>
	<path class="st0" d="M145.2,12.7l-3.8-8.4l-3.8,8.4H145.2z M146,14.3h-9l-1.5,3.2c-0.1,0.3-0.2,0.5-0.2,0.6c0,0.2,0.2,0.4,0.7,0.5
		V19h-3.8v-0.4c0.3-0.1,0.6-0.2,0.8-0.4s0.4-0.6,0.7-1.2l6.2-13.4c0.1-0.3,0.2-0.5,0.2-0.7s-0.2-0.4-0.6-0.5V2.1h4.1v0.4
		C143.2,2.6,143,2.8,143,3c0,0.1,0.1,0.3,0.2,0.6l5.9,12.9c0.4,1,0.7,1.5,0.9,1.7s0.4,0.3,0.9,0.4V19h-4v-0.4
		c0.5-0.1,0.7-0.2,0.7-0.5c0-0.1-0.1-0.4-0.3-0.8L146,14.3z"/>
	<path class="st0" d="M157.9,9.8h6.9c0.9,0,1.6,0,2.1-0.1s0.9-0.2,1.3-0.4c0.9-0.5,1.3-1.3,1.3-2.5s-0.4-2-1.3-2.5
		c-0.4-0.2-0.8-0.4-1.3-0.4c-0.5-0.1-1.2-0.1-2.2-0.1h-6.8V9.8L157.9,9.8z M157.9,11.4v6.1c0,0.3,0.1,0.6,0.2,0.7
		c0.1,0.1,0.3,0.3,0.6,0.3v0.4h-3.5v-0.4c0.3-0.1,0.5-0.2,0.6-0.3s0.2-0.4,0.2-0.7v-14c0-0.3-0.1-0.6-0.2-0.7
		c-0.1-0.1-0.3-0.2-0.6-0.3V2.1h9.3c1.3,0,2.3,0.1,3,0.2s1.4,0.4,1.9,0.7c0.6,0.3,1,0.8,1.4,1.4c0.4,0.7,0.6,1.5,0.6,2.3
		c0,1.3-0.4,2.3-1.3,3.1c-0.9,0.8-2,1.3-3.5,1.4l4.3,6.7c0.3,0.4,0.6,0.6,1.1,0.6v0.4h-3.9v-0.4c0.4-0.1,0.6-0.2,0.6-0.3
		s-0.1-0.4-0.4-0.8l-3.8-6.1L157.9,11.4L157.9,11.4z"/>
	<path class="st0" d="M178,17.6v-14c0-0.3-0.1-0.6-0.2-0.7c-0.1-0.1-0.3-0.2-0.6-0.3V2.1h3.5v0.4c-0.3,0.1-0.5,0.2-0.6,0.3
		c-0.1,0.1-0.2,0.4-0.2,0.7v14c0,0.4,0.1,0.6,0.1,0.7c0.1,0.1,0.3,0.2,0.6,0.3v0.4h-3.5v-0.4c0.3-0.1,0.5-0.2,0.6-0.3
		C178,18.2,178,17.9,178,17.6"/>
	<path class="st0" d="M202.9,3.2l-1.8,3.2l-0.4-0.2c0.1-0.4,0.2-0.6,0.2-0.7c0-0.2-0.3-0.5-0.9-0.8c-1.7-0.8-3.4-1.2-5.3-1.2
		c-1.5,0-2.9,0.3-4,0.8c-0.5,0.3-1,0.6-1.3,1.1c-0.3,0.4-0.5,0.9-0.5,1.4c0,0.4,0.1,0.8,0.4,1.2s0.6,0.6,1,0.8s1,0.4,1.6,0.4
		s1.6,0.1,3,0.2c1.9,0.1,3.3,0.1,4.1,0.3s1.5,0.3,2,0.6c1.4,0.8,2.1,2,2.1,3.6c0,1.5-0.6,2.8-1.9,3.8c-1.4,1.1-3.4,1.6-5.8,1.6
		c-1.4,0-2.7-0.1-3.7-0.4c-1.1-0.3-2.3-0.8-3.8-1.6c-0.4-0.2-0.7-0.3-0.7-0.3c-0.1,0-0.3,0.1-0.6,0.5l-0.3-0.2l1.9-3.1l0.4,0.2
		c-0.2,0.3-0.2,0.5-0.2,0.7c0,0.3,0.5,0.7,1.6,1.2c0.9,0.5,1.9,0.9,2.7,1.1s1.8,0.3,2.9,0.3c2.1,0,3.7-0.5,4.8-1.4
		c0.7-0.6,1.1-1.3,1.1-2.2c0-1.1-0.6-1.9-1.9-2.3c-0.4-0.1-0.8-0.2-1.2-0.3c-0.4,0-1.6-0.1-3.6-0.2c-1.4-0.1-2.5-0.2-3.3-0.3
		s-1.5-0.4-2.1-0.8c-0.6-0.3-1.1-0.8-1.4-1.4s-0.5-1.2-0.5-1.9c0-1.2,0.4-2.2,1.3-3.1c0.7-0.6,1.6-1.1,2.7-1.5
		c1.2-0.4,2.4-0.5,3.8-0.5c1.1,0,2.2,0.1,3.1,0.3c1,0.2,2.1,0.6,3.3,1.2c0.3,0.1,0.4,0.2,0.5,0.2s0.4-0.2,0.6-0.5L202.9,3.2z"/>
	<path class="st0" d="M218.2,19l-7.1-14.2v12.8c0,0.3,0.1,0.6,0.2,0.7c0.1,0.1,0.3,0.3,0.6,0.3V19h-3.3v-0.4
		c0.3-0.1,0.5-0.2,0.6-0.3s0.2-0.4,0.2-0.7v-14c0-0.3-0.1-0.6-0.2-0.7c-0.1-0.1-0.3-0.2-0.6-0.3V2.1h4.4v0.4
		c-0.4,0.1-0.6,0.3-0.6,0.5c0,0.1,0.1,0.4,0.4,0.9l5.6,11.1L224,3.8c0.2-0.4,0.3-0.7,0.3-0.8c0-0.2-0.2-0.4-0.6-0.5V2.1h4.4v0.4
		c-0.3,0.1-0.5,0.2-0.6,0.3c-0.1,0.1-0.2,0.4-0.2,0.7v14c0,0.3,0.1,0.6,0.2,0.7c0.1,0.1,0.3,0.3,0.6,0.3v0.4h-3.5v-0.4
		c0.3-0.1,0.5-0.2,0.6-0.3c0.1-0.1,0.1-0.4,0.1-0.7V4.8L218.2,19z"/>
	<path class="st0" d="M245.6,12.7l-3.8-8.4l-3.8,8.4H245.6z M246.3,14.3h-9l-1.5,3.2c-0.1,0.3-0.2,0.5-0.2,0.6
		c0,0.2,0.2,0.4,0.7,0.5V19h-3.8v-0.4c0.3-0.1,0.6-0.2,0.8-0.4s0.4-0.6,0.7-1.2l6.2-13.4c0.1-0.3,0.2-0.5,0.2-0.7s-0.2-0.4-0.6-0.5
		V2.1h4.1v0.4c-0.4,0.1-0.6,0.3-0.6,0.5c0,0.1,0.1,0.3,0.2,0.6l5.9,12.9c0.4,1,0.7,1.5,0.9,1.7s0.4,0.3,0.9,0.4V19h-4v-0.4
		c0.5-0.1,0.7-0.2,0.7-0.5c0-0.1-0.1-0.4-0.3-0.8L246.3,14.3z"/>
	<path class="st0" d="M274.9,16.8v2h-11.5c0-0.5,0.1-1,0.2-1.5c0.3-0.8,0.8-1.5,1.4-2.3c0.6-0.8,1.6-1.6,2.8-2.6
		c1.9-1.6,3.2-2.8,3.8-3.7c0.7-0.9,1-1.8,1-2.6s-0.3-1.6-0.9-2.1c-0.6-0.6-1.4-0.9-2.4-0.9s-1.9,0.3-2.5,0.9s-0.9,1.5-0.9,2.6
		l-2.2-0.2c0.1-1.6,0.7-2.9,1.7-3.7s2.3-1.3,3.9-1.3c1.7,0,3,0.5,4,1.4s1.5,2.1,1.5,3.4c0,0.7-0.1,1.4-0.4,2.1
		c-0.3,0.7-0.8,1.4-1.4,2.1s-1.8,1.8-3.3,3.1c-1.3,1.1-2.1,1.8-2.5,2.2c-0.4,0.4-0.7,0.8-0.9,1.2L274.9,16.8L274.9,16.8z"/>
	<path class="st0" d="M281.8,10.3c0,2.8,0.3,4.7,1,5.7s1.5,1.4,2.5,1.4s1.8-0.5,2.5-1.4c0.7-0.9,1-2.8,1-5.7s-0.3-4.8-1-5.7
		s-1.5-1.4-2.5-1.4s-1.8,0.4-2.3,1.2C282.2,5.5,281.8,7.5,281.8,10.3 M279.6,10.3c0-2.1,0.2-3.7,0.6-5c0.4-1.2,1-2.2,1.9-2.9
		c0.8-0.7,1.9-1,3.1-1c0.9,0,1.8,0.2,2.5,0.6s1.3,0.9,1.7,1.6c0.5,0.7,0.8,1.6,1.1,2.6c0.3,1,0.4,2.4,0.4,4.1c0,2-0.2,3.7-0.6,4.9
		s-1,2.2-1.9,2.9c-0.8,0.7-1.9,1-3.2,1c-1.7,0-3-0.6-3.9-1.8C280.2,15.9,279.6,13.6,279.6,10.3"/>
	<path class="st0" d="M306.7,16.8v2h-11.5c0-0.5,0.1-1,0.2-1.5c0.3-0.8,0.8-1.5,1.4-2.3c0.6-0.8,1.6-1.6,2.8-2.6
		c1.9-1.6,3.2-2.8,3.8-3.7c0.7-0.9,1-1.8,1-2.6s-0.3-1.6-0.9-2.1c-0.6-0.6-1.4-0.9-2.4-0.9s-1.9,0.3-2.5,0.9
		c-0.4,0.8-0.7,1.6-0.7,2.7l-2.2-0.2c0.1-1.6,0.7-2.9,1.7-3.7s2.3-1.3,3.9-1.3c1.7,0,3,0.5,4,1.4s1.5,2.1,1.5,3.4
		c0,0.7-0.1,1.4-0.4,2.1s-0.8,1.4-1.4,2.1s-1.8,1.8-3.3,3.1c-1.3,1.1-2.1,1.8-2.5,2.2c-0.4,0.4-0.7,0.8-0.9,1.2L306.7,16.8
		L306.7,16.8z"/>
	<path class="st0" d="M340.3,6.9c0.1-0.3,0.6-0.7,1.1-0.7c0.9,0,2.3,0.6,2.3,1.2c0,0.2-0.1,0.3-0.3,0.4c-0.1,0.1-0.3,0.5-0.4,1.1
		c-1,3.9-2.8,7.5-7.4,10.3l-0.4-0.4c5.6-4.1,6.5-10.4,6.5-11c0-0.7-0.5-0.8-1-0.8C340.6,6.9,340.5,6.9,340.3,6.9L340.3,6.9z
		 M344.8,8.1c2-1.9,3.4-4.6,3.4-4.7s-0.1-0.2-0.2-0.2c-2.6,0.2-7.9,0.5-9,0.7c-1,0.1-1.6,0.2-2,0.3c-0.5,0.2-0.6,0.4-1,0.4
		c-0.8,0-1.9-1.3-1.9-1.9c0-0.5,0.1-0.8,0.6-1.1h0.1c0,0.8,0.7,1.4,1.9,1.4c2.1,0,9.1-0.4,10.8-0.6c0.4,0,0.6-0.1,0.8-0.2
		c0.3-0.2,0.5-0.4,0.7-0.4c0.4,0,1.9,1.3,1.9,1.8c0,0.3-0.3,0.4-0.8,0.5c-0.3,0.1-0.6,0.2-1,0.7c-0.9,1.1-2.2,2.6-3.9,3.8L344.8,8.1
		z"/>
	<path class="st0" d="M360.1,3c0.2-0.2,0.5-0.3,0.8-0.4c0.7,0,1.4,0.5,1.7,0.9c0.3,0,0.5,0,0.8,0c1.7,0,7.4-0.3,9.7-0.4
		c0.3,0,0.5-0.2,0.7-0.4c0.3-0.2,0.5-0.4,0.6-0.4c0.5,0,1.8,1.3,1.8,1.6s-0.4,0.4-0.6,0.5s-0.3,0.1-0.4,0.4
		C374,11,372,16,364.2,19.1l-0.3-0.4c6.7-3.1,9.1-8.1,9.9-14.3c0-0.1,0-0.2,0-0.2c0-0.2-0.1-0.2-0.4-0.2c-2.6,0.1-6.7,0.4-8.6,0.6
		c-0.4,0-0.9,0.1-1.3,0.1c-0.2,0-0.5,0-0.7-0.1c-0.1,0.1-0.1,0.3-0.1,0.5c0,0.7,0.5,4.1,0.5,4.9c0,0.5-0.2,0.8-0.6,0.8
		c-0.6,0-1.1-1.2-1.1-1.7c0-0.4,0.2-0.6,0.2-1c0-0.6-0.2-2.9-0.4-3.8C361.1,3.7,360.8,3.2,360.1,3L360.1,3z"/>
	<path class="st0" d="M398.4,9.4c1.5,0,2.3-0.2,2.6-0.2c0.9,0,2.2,0.3,2.2,0.8c0,0.4-0.4,0.5-1.2,0.5c-0.4,0-0.8,0-1.2,0
		c-0.9,0-2.6,0-3.8,0c-4.8,0-8.7,0-9.6,0.4c-0.3,0.1-0.6,0.3-0.9,0.3c-0.7,0-2.1-1.2-2.1-2.1c0-0.5,0.1-0.8,0.4-1h0.1
		c0.2,1,0.8,1.3,3.2,1.3C388.2,9.4,398.4,9.4,398.4,9.4z"/>
	<path class="st0" d="M425.1,1.3c1.7,0.7,2.9,1.8,2.9,2.8c0,0.5-0.3,0.7-0.6,0.7c-0.3,0-0.5-0.1-0.6-0.6c-0.3-0.7-0.8-1.7-2-2.5
		L425.1,1.3z M422.9,2.7c1.7,0.7,2.9,1.8,2.9,2.8c0,0.5-0.3,0.8-0.6,0.8c-0.3,0-0.5-0.1-0.6-0.6c-0.3-0.8-0.8-1.7-2-2.5L422.9,2.7z
		 M415.4,1.8c0.1-0.3,0.5-0.7,1-0.7c1,0,2.6,0.6,2.6,1.4c0,0.2-0.2,0.3-0.3,0.6c-0.1,0.1-0.1,0.3-0.1,0.6c0,0.9-0.1,2.6-0.1,4.4
		c2.6,0.3,4.9,1,6.1,1.7s1.8,1.2,1.8,1.9c0,0.4-0.3,0.7-0.6,0.7c-0.5,0-1.1-0.6-1.6-1c-0.9-0.8-3.1-1.9-5.7-2.7c0,1.6,0,3.2,0,4.5
		c0,0.7,0.1,4.2,0.1,5c0,0.9-0.4,1.2-0.7,1.2c-0.8,0-1-2-1.2-2.6c0.4-0.6,0.5-0.9,0.6-3.3c0-1,0-3.2,0-5.3c0-1.8,0-3.6-0.1-4.5
		C417,2.9,416.9,1.8,415.4,1.8L415.4,1.8z"/>
</g>
<g>
	<path class="st2" d="M380.1,16.2"/>
</g>
<path class="st0" d="M323,16.9v2h-11.5c0-0.5,0.1-1,0.2-1.5c0.3-0.8,0.8-1.5,1.4-2.3c0.6-0.8,1.6-1.6,2.8-2.6
	c1.9-1.6,3.2-2.8,3.8-3.7c0.7-0.9,1-1.8,1-2.6s-0.3-1.6-0.9-2.1c-0.6-0.6-1.4-0.9-2.4-0.9s-1.9,0.3-2.5,0.9S314,5.6,314,6.7
	l-2.1-0.2c0.1-1.6,0.7-2.9,1.7-3.7s2.3-1.3,3.9-1.3c1.7,0,3,0.5,4,1.4S323,5,323,6.3c0,0.7-0.1,1.4-0.4,2.1s-0.8,1.4-1.4,2.1
	s-1.8,1.8-3.3,3.1c-1.3,1.1-2.1,1.8-2.5,2.2c-0.4,0.4-0.7,0.8-0.9,1.2L323,16.9L323,16.9z"/>
</svg>
